<svg xmlns="http://www.w3.org/2000/svg" viewBox="0 0 428 392.16"><defs><style>.cls-1{fill:#e8f4f9;}.cls-2{fill:#d1ecfb;}.cls-3{fill:#0e303f;}.cls-4{fill:#2c5871;}.cls-5{fill:#fff;}.cls-6{fill:#8fc4d7;}.cls-7{fill:#1695a4;}.cls-8{fill:#e4e4e4;}.cls-9{fill:#15b0bf;}.cls-10{fill:#fec00f;}.cls-11{fill:#f99b1c;}.cls-12{fill:#103754;}.cls-13{fill:#a6dae9;}</style></defs><g id="Camada_2" data-name="Camada 2"><g id="Layer_1" data-name="Layer 1"><path class="cls-1" d="M280.51,154.41a37.09,37.09,0,0,0-52.45,0l-2.35,2.34-25,8.95,8.38,8.38a36.55,36.55,0,0,0-2.76,4.53,3.56,3.56,0,0,0-3.3,3.71,3.58,3.58,0,0,0-2.88,4.63l-.87.87a14.27,14.27,0,0,0,0,20.17l13.77,13.77a.08.08,0,0,1,0,0l0,0,.63.63L239.35,248l26.22-26.22,14.94-14.94A37.09,37.09,0,0,0,280.51,154.41Z"/><path class="cls-2" d="M230.1,192.72a10,10,0,1,1,0-14.21A10,10,0,0,1,230.1,192.72Z"/><polygon class="cls-3" points="182.67 392.16 204.91 386.02 227.15 379.88 227.15 392.16 227.15 392.16 204.91 392.16 182.67 392.16"/><polygon class="cls-3" points="314.98 392.16 292.75 386.02 270.51 379.88 270.51 392.16 270.51 392.16 292.75 392.16 314.98 392.16"/><rect class="cls-4" x="184.88" y="333.11" width="85.01" height="15.62" transform="translate(-140.74 520.96) rotate(-82.36)"/><rect class="cls-4" x="262.46" y="298.42" width="15.62" height="85.01" transform="translate(-37.78 33.71) rotate(-6.67)"/><rect class="cls-3" x="204.18" y="220.21" width="87.42" height="90.87"/><path class="cls-5" d="M133.81,159.77a7.87,7.87,0,0,1-6.64,8.94l-12.66,1.86a7.88,7.88,0,0,1-8.94-6.64l-1.86-12.65a7.86,7.86,0,0,1,6.64-8.94L123,140.47a7.88,7.88,0,0,1,8.94,6.64Z"/><path class="cls-5" d="M104.1,133.14a3,3,0,0,0-2.56,3.45l3.26,22.08a3,3,0,0,0,3.44,2.55h0a3,3,0,0,0,2.55-3.44l-3.25-22.08a3,3,0,0,0-3.44-2.56Z"/><path class="cls-5" d="M110.38,124.93a3,3,0,0,0-2.55,3.44l3.25,22.08a3,3,0,0,0,3.44,2.56h0a3,3,0,0,0,2.57-3.44l-3.27-22.08a3,3,0,0,0-3.44-2.56Z"/><path class="cls-5" d="M125.27,122.73a3,3,0,0,0-2.56,3.44L126,148.26a3,3,0,0,0,3.44,2.55h0a3,3,0,0,0,2.55-3.44l-3.25-22.08a3,3,0,0,0-3.44-2.56Z"/><path class="cls-5" d="M116.77,116.7a3,3,0,0,0-2.55,3.44l3.25,22.08a3,3,0,0,0,3.45,2.56h0a3,3,0,0,0,2.55-3.44l-3.25-22.08a3,3,0,0,0-3.45-2.56Z"/><path class="cls-5" d="M112.61,189.92l-4.25-28.8a5.34,5.34,0,0,1,4.51-6.06l8.58-1.27a5.35,5.35,0,0,1,6.07,4.5l4.25,28.81Z"/><path class="cls-5" d="M135,158.45,133.34,147a4.48,4.48,0,0,1,3.78-5.08l1.48-.22.18,0,1.44,9.78Z"/><path class="cls-5" d="M131,157.38l6.34-8.54a4.42,4.42,0,0,1,2.32-1.6l1.09,7.35L132.25,166Z"/><path class="cls-5" d="M312.52,119.61a7.88,7.88,0,0,0,6.66,8.93l12.65,1.87a7.87,7.87,0,0,0,8.94-6.64l1.87-12.66a7.87,7.87,0,0,0-6.64-8.93l-12.66-1.87A7.86,7.86,0,0,0,314.4,107Z"/><path class="cls-5" d="M342.25,93a3,3,0,0,1,2.56,3.44l-3.26,22.08a3,3,0,0,1-3.44,2.56h0a3,3,0,0,1-2.56-3.44l3.25-22.09A3,3,0,0,1,342.25,93Z"/><path class="cls-5" d="M336,84.76a3,3,0,0,1,2.56,3.45l-3.26,22.08a3,3,0,0,1-3.44,2.56h0a3,3,0,0,1-2.56-3.45l3.26-22.08A3,3,0,0,1,336,84.76Z"/><path class="cls-5" d="M321.07,82.57A3,3,0,0,1,323.63,86l-3.26,22.08a3,3,0,0,1-3.44,2.56h0a3,3,0,0,1-2.55-3.44l3.25-22.08a3,3,0,0,1,3.44-2.56Z"/><path class="cls-5" d="M329.57,76.54A3,3,0,0,1,332.13,80l-3.26,22.08a3,3,0,0,1-3.44,2.56h0a3,3,0,0,1-2.56-3.45l3.26-22.08a3,3,0,0,1,3.44-2.55Z"/><path class="cls-5" d="M333.73,149.76,338,121a5.35,5.35,0,0,0-4.51-6.07l-8.58-1.26a5.34,5.34,0,0,0-6.07,4.5l-4.24,28.8Z"/><path class="cls-5" d="M311.31,118.29,313,106.84a4.48,4.48,0,0,0-3.78-5.08l-1.47-.21-.19,0-1.44,9.77Z"/><path class="cls-5" d="M315.37,117.21,309,108.68a4.4,4.4,0,0,0-2.31-1.61l-1.09,7.35,8.47,11.41Z"/><path class="cls-3" d="M311.81,133.93a91.17,91.17,0,0,1-179.4,32l-27.92,5A119.51,119.51,0,0,0,339.72,129Z"/><polygon class="cls-6" points="236.69 242.15 263.51 220.21 209.87 220.21 236.69 242.15"/><polygon class="cls-3" points="231.84 224.77 228.83 220.03 244.55 220.03 241.55 224.77 231.84 224.77"/><polygon class="cls-3" points="241.55 224.02 244.55 253.07 236.69 260.5 228.83 253.07 231.84 224.02 241.55 224.02"/><path class="cls-7" d="M241.06,272.19a2.24,2.24,0,1,1-2.23-2.23A2.23,2.23,0,0,1,241.06,272.19Z"/><path class="cls-7" d="M241.06,281.4a2.24,2.24,0,1,1-2.23-2.23A2.23,2.23,0,0,1,241.06,281.4Z"/><path class="cls-7" d="M241.06,290.6a2.24,2.24,0,1,1-2.23-2.23A2.23,2.23,0,0,1,241.06,290.6Z"/><path class="cls-8" d="M203.33,365.24a1.24,1.24,0,1,1,0-2.47c2.84,0,5.73-.09,8.57-.25a1.21,1.21,0,0,1,1.31,1.16A1.26,1.26,0,0,1,212,365c-2.89.16-5.82.24-8.71.25Zm-8.65-.2h-.06c-2.9-.15-5.82-.37-8.68-.67a1.24,1.24,0,0,1-1.1-1.36,1.21,1.21,0,0,1,1.36-1.1c2.81.3,5.69.52,8.55.66a1.24,1.24,0,0,1-.07,2.47Zm25.9-.77a1.23,1.23,0,0,1-.13-2.46c2.84-.32,5.7-.71,8.5-1.18a1.26,1.26,0,0,1,1.42,1,1.23,1.23,0,0,1-1,1.42c-2.84.47-5.74.87-8.63,1.19Zm-43.08-1-.2,0c-2.87-.45-5.75-1-8.57-1.6a1.23,1.23,0,0,1-.94-1.47,1.25,1.25,0,0,1,1.47-1c2.77.6,5.61,1.13,8.43,1.58a1.24,1.24,0,0,1-.19,2.46Zm60.14-1.81a1.23,1.23,0,0,1-.27-2.44c2.77-.61,5.57-1.31,8.32-2.08a1.24,1.24,0,0,1,1.53.85,1.26,1.26,0,0,1-.86,1.53c-2.8.78-5.64,1.49-8.45,2.12A1.27,1.27,0,0,1,237.64,361.44Zm-77-1.83a1.22,1.22,0,0,1-.32,0c-2.79-.77-5.6-1.61-8.34-2.53a1.23,1.23,0,1,1,.78-2.34c2.7.9,5.46,1.73,8.21,2.48a1.24,1.24,0,0,1-.33,2.43Zm93.69-2.82a1.25,1.25,0,0,1-1.17-.84,1.24,1.24,0,0,1,.78-1.57c2.7-.92,5.4-1.92,8-3a1.24,1.24,0,1,1,.92,2.3c-2.68,1.07-5.43,2.09-8.17,3A1.34,1.34,0,0,1,254.28,356.79Zm-110.11-2.64a1.2,1.2,0,0,1-.45-.09c-2.71-1.07-5.41-2.22-8-3.42a1.24,1.24,0,1,1,1-2.25c2.58,1.19,5.24,2.32,7.91,3.37a1.24,1.24,0,0,1-.46,2.39Zm126.14-3.8a1.23,1.23,0,0,1-.52-2.35c2.59-1.21,5.17-2.5,7.66-3.83a1.24,1.24,0,0,1,1.17,2.18c-2.54,1.35-5.16,2.66-7.78,3.89A1.23,1.23,0,0,1,270.31,350.35Zm-141.88-3.42a1.3,1.3,0,0,1-.57-.14c-2.56-1.35-5.12-2.79-7.6-4.27a1.24,1.24,0,0,1-.43-1.7,1.22,1.22,0,0,1,1.69-.42c2.45,1.46,5,2.87,7.49,4.2a1.24,1.24,0,0,1-.58,2.33Zm157.11-4.71a1.23,1.23,0,0,1-.64-2.29c2.42-1.47,4.85-3,7.21-4.63a1.23,1.23,0,0,1,1.72.32,1.25,1.25,0,0,1-.33,1.72c-2.4,1.63-4.86,3.21-7.32,4.7A1.15,1.15,0,0,1,285.54,342.22Zm-172-4.17a1.17,1.17,0,0,1-.69-.21c-2.39-1.61-4.78-3.31-7.1-5.06a1.24,1.24,0,0,1,1.49-2c2.28,1.72,4.63,3.39,7,5a1.23,1.23,0,0,1-.69,2.26Zm186.23-5.56a1.23,1.23,0,0,1-.75-2.21c2.27-1.74,4.52-3.55,6.68-5.39a1.23,1.23,0,1,1,1.6,1.88c-2.19,1.87-4.47,3.71-6.77,5.47A1.26,1.26,0,0,1,299.81,332.49Zm-200-4.86a1.2,1.2,0,0,1-.8-.29c-2.22-1.88-4.41-3.83-6.51-5.79a1.24,1.24,0,0,1,1.69-1.81c2.07,1.94,4.22,3.86,6.41,5.71a1.24,1.24,0,0,1-.79,2.18ZM313,321.28a1.25,1.25,0,0,1-.9-.38,1.23,1.23,0,0,1,.05-1.75c2.07-2,4.11-4,6.05-6.07a1.24,1.24,0,0,1,1.8,1.7c-2,2.09-4.05,4.16-6.15,6.16A1.23,1.23,0,0,1,313,321.28ZM87.18,315.79a1.23,1.23,0,0,1-.9-.38c-2-2.09-4-4.27-5.84-6.46a1.23,1.23,0,1,1,1.87-1.6c1.85,2.15,3.79,4.29,5.76,6.35a1.24,1.24,0,0,1,0,1.75A1.21,1.21,0,0,1,87.18,315.79Zm237.66-7.07a1.27,1.27,0,0,1-.8-.29,1.24,1.24,0,0,1-.14-1.74c1.85-2.19,3.66-4.44,5.37-6.7a1.25,1.25,0,0,1,1.74-.23,1.23,1.23,0,0,1,.23,1.73c-1.74,2.29-3.58,4.58-5.46,6.79A1.22,1.22,0,0,1,324.84,308.72Zm-248.91-6a1.23,1.23,0,0,1-1-.49c-1.77-2.3-3.49-4.67-5.12-7a1.24,1.24,0,0,1,2-1.4c1.6,2.34,3.29,4.67,5,6.94a1.24,1.24,0,0,1-1,2ZM335.31,295a1.24,1.24,0,0,1-1-1.93c1.6-2.35,3.15-4.79,4.63-7.24a1.24,1.24,0,1,1,2.12,1.28c-1.5,2.49-3.08,5-4.7,7.35A1.24,1.24,0,0,1,335.31,295ZM66.15,288.43a1.25,1.25,0,0,1-1.06-.59c-1.5-2.47-3-5-4.32-7.55a1.23,1.23,0,1,1,2.17-1.17c1.35,2.5,2.78,5,4.26,7.43a1.23,1.23,0,0,1-.41,1.7A1.15,1.15,0,0,1,66.15,288.43Zm278.08-8.31a1.34,1.34,0,0,1-.58-.14,1.24,1.24,0,0,1-.51-1.67c1.34-2.53,2.62-5.12,3.81-7.7a1.24,1.24,0,0,1,2.25,1c-1.22,2.62-2.52,5.25-3.88,7.81A1.23,1.23,0,0,1,344.23,280.12ZM58,273.23a1.23,1.23,0,0,1-1.12-.71c-1.24-2.63-2.41-5.31-3.48-8a1.24,1.24,0,0,1,2.29-.93c1,2.62,2.21,5.26,3.42,7.85A1.24,1.24,0,0,1,58,273.23Zm293.52-8.82a1.22,1.22,0,0,1-.46-.09,1.24,1.24,0,0,1-.69-1.61c1-2.64,2-5.36,3-8.07a1.23,1.23,0,0,1,2.34.79c-.92,2.75-1.94,5.51-3,8.2A1.23,1.23,0,0,1,351.5,264.41Zm-300-7.19a1.24,1.24,0,0,1-1.17-.83c-.93-2.72-1.81-5.52-2.6-8.32a1.24,1.24,0,0,1,2.38-.67c.78,2.75,1.64,5.51,2.56,8.18a1.25,1.25,0,0,1-.77,1.58A1.39,1.39,0,0,1,51.49,257.22ZM357,248a1.26,1.26,0,0,1-.33,0,1.23,1.23,0,0,1-.86-1.52c.76-2.76,1.45-5.56,2.06-8.33a1.23,1.23,0,1,1,2.41.53c-.61,2.81-1.31,5.65-2.09,8.46A1.23,1.23,0,0,1,357,248ZM46.78,240.59a1.24,1.24,0,0,1-1.21-1c-.63-2.85-1.2-5.72-1.68-8.55a1.24,1.24,0,0,1,2.44-.42c.47,2.79,1,5.62,1.65,8.42a1.23,1.23,0,0,1-1.2,1.51Zm313.93-9.47-.21,0a1.24,1.24,0,0,1-1-1.42c.46-2.81.85-5.67,1.15-8.5a1.23,1.23,0,1,1,2.45.27c-.3,2.87-.69,5.77-1.16,8.63A1.23,1.23,0,0,1,360.71,231.12ZM43.9,223.55a1.25,1.25,0,0,1-1.23-1.1c-.32-2.84-.57-5.76-.75-8.68a1.25,1.25,0,0,1,1.16-1.31,1.21,1.21,0,0,1,1.31,1.16c.17,2.88.42,5.75.74,8.55A1.24,1.24,0,0,1,44,223.54Zm318.65-9.62h-.06a1.23,1.23,0,0,1-1.17-1.3c.14-2.86.22-5.75.22-8.57v-2a1.23,1.23,0,0,1,1.22-1.25,1.29,1.29,0,0,1,1.25,1.22v2c0,2.88-.07,5.81-.23,8.71A1.23,1.23,0,0,1,362.55,213.93ZM42.88,206.29a1.24,1.24,0,0,1-1.24-1.23v-1c0-2.59.06-5.15.18-7.71a1.24,1.24,0,0,1,2.47.12q-.18,3.76-.18,7.59v1a1.23,1.23,0,0,1-1.22,1.25Zm319.55-11.63a1.24,1.24,0,0,1-1.24-1.16c-.18-2.82-.44-5.69-.78-8.54a1.23,1.23,0,0,1,1.08-1.37,1.25,1.25,0,0,1,1.37,1.08c.35,2.89.62,5.81.8,8.68a1.23,1.23,0,0,1-1.15,1.31ZM43.69,189h-.12a1.23,1.23,0,0,1-1.11-1.35c.29-2.88.66-5.79,1.11-8.65A1.27,1.27,0,0,1,45,178a1.24,1.24,0,0,1,1,1.42c-.44,2.81-.8,5.67-1.09,8.5A1.24,1.24,0,0,1,43.69,189ZM360.37,177.5a1.24,1.24,0,0,1-1.22-1c-.49-2.81-1.07-5.63-1.71-8.41a1.24,1.24,0,0,1,2.41-.56c.65,2.82,1.24,5.69,1.74,8.54a1.25,1.25,0,0,1-1,1.43ZM46.35,172a1.07,1.07,0,0,1-.25,0,1.23,1.23,0,0,1-1-1.47c.59-2.81,1.28-5.66,2-8.47a1.24,1.24,0,0,1,2.39.65c-.75,2.76-1.42,5.57-2,8.34A1.23,1.23,0,0,1,46.35,172Zm310.12-11.29a1.23,1.23,0,0,1-1.19-.89c-.8-2.75-1.68-5.5-2.61-8.17a1.24,1.24,0,0,1,.75-1.58,1.25,1.25,0,0,1,1.58.76c.95,2.72,1.84,5.51,2.65,8.3a1.23,1.23,0,0,1-.84,1.53A1.33,1.33,0,0,1,356.47,160.66Zm-305.62-5.4a1.24,1.24,0,0,1-1.17-1.63c.91-2.75,1.9-5.51,3-8.21a1.23,1.23,0,0,1,2.3.9c-1,2.66-2,5.38-2.9,8.09A1.25,1.25,0,0,1,50.85,155.26Zm299.9-10.92a1.23,1.23,0,0,1-1.14-.76c-1.06-2.6-2.24-5.23-3.48-7.83a1.24,1.24,0,0,1,2.24-1.06c1.25,2.64,2.44,5.31,3.53,7.95a1.23,1.23,0,0,1-.68,1.61A1.27,1.27,0,0,1,350.75,144.34ZM57.16,139.12a1.19,1.19,0,0,1-.52-.11,1.23,1.23,0,0,1-.61-1.63c1.21-2.65,2.5-5.29,3.83-7.84a1.23,1.23,0,1,1,2.19,1.14c-1.32,2.51-2.58,5.11-3.77,7.72A1.23,1.23,0,0,1,57.16,139.12Zm286.16-10.35a1.24,1.24,0,0,1-1.09-.64c-1.37-2.52-2.82-5-4.3-7.41a1.23,1.23,0,1,1,2.1-1.3c1.51,2.44,3,5,4.37,7.52a1.24,1.24,0,0,1-.49,1.68A1.26,1.26,0,0,1,343.32,128.77Zm-278.15-5a1.19,1.19,0,0,1-.63-.17,1.23,1.23,0,0,1-.43-1.69c1.47-2.49,3-5,4.65-7.38a1.23,1.23,0,1,1,2,1.37c-1.58,2.37-3.12,4.82-4.58,7.27A1.22,1.22,0,0,1,65.17,123.78Zm269.07-9.7a1.24,1.24,0,0,1-1-.53c-1.61-2.32-3.32-4.64-5.08-6.9a1.24,1.24,0,1,1,1.95-1.52c1.79,2.29,3.52,4.65,5.16,7a1.24,1.24,0,0,1-.31,1.72A1.21,1.21,0,0,1,334.24,114.08ZM74.79,109.4a1.2,1.2,0,0,1-.74-.25,1.23,1.23,0,0,1-.25-1.73c1.74-2.32,3.56-4.61,5.42-6.82a1.23,1.23,0,1,1,1.89,1.58c-1.83,2.18-3.62,4.44-5.33,6.73A1.26,1.26,0,0,1,74.79,109.4Zm248.84-9a1.26,1.26,0,0,1-.94-.43c-1.87-2.15-3.82-4.28-5.8-6.32A1.24,1.24,0,1,1,318.67,92c2,2.07,4,4.23,5.89,6.42a1.24,1.24,0,0,1-.93,2ZM85.9,96.15a1.21,1.21,0,0,1-.85-.34A1.23,1.23,0,0,1,85,94.07c2-2.11,4-4.2,6.12-6.21a1.23,1.23,0,1,1,1.71,1.78c-2.06,2-4.09,4-6,6.11A1.25,1.25,0,0,1,85.9,96.15ZM311.6,88a1.24,1.24,0,0,1-.84-.33c-2.08-1.93-4.25-3.83-6.44-5.66a1.24,1.24,0,1,1,1.58-1.9c2.23,1.86,4.43,3.79,6.54,5.75a1.24,1.24,0,0,1,.07,1.75A1.26,1.26,0,0,1,311.6,88ZM98.35,84.16a1.23,1.23,0,0,1-.8-2.17c2.18-1.88,4.45-3.73,6.74-5.51a1.24,1.24,0,0,1,1.51,2c-2.26,1.75-4.49,3.57-6.64,5.42A1.23,1.23,0,0,1,98.35,84.16Zm200-7.2a1.22,1.22,0,0,1-.74-.25c-2.28-1.7-4.64-3.36-7-4.94a1.24,1.24,0,0,1,1.37-2.06c2.41,1.6,4.81,3.29,7.13,5a1.23,1.23,0,0,1,.25,1.73A1.21,1.21,0,0,1,298.31,77ZM112,73.59a1.23,1.23,0,0,1-1-.53,1.25,1.25,0,0,1,.32-1.72c2.38-1.65,4.83-3.24,7.29-4.75a1.23,1.23,0,0,1,1.7.41,1.25,1.25,0,0,1-.41,1.7c-2.41,1.48-4.83,3-7.18,4.67A1.21,1.21,0,0,1,112,73.59Zm171.89-6.21a1.19,1.19,0,0,1-.63-.17c-2.46-1.45-5-2.85-7.52-4.16a1.23,1.23,0,0,1,1.14-2.19c2.57,1.33,5.14,2.75,7.64,4.22a1.25,1.25,0,0,1,.43,1.7A1.22,1.22,0,0,1,283.91,67.38ZM126.74,64.56a1.24,1.24,0,0,1-1.09-.65,1.23,1.23,0,0,1,.5-1.67c2.55-1.39,5.16-2.71,7.76-3.94A1.24,1.24,0,0,1,135,60.54c-2.55,1.2-5.12,2.51-7.63,3.87A1.26,1.26,0,0,1,126.74,64.56Zm141.8-5.15a1.32,1.32,0,0,1-.51-.1c-2.61-1.18-5.28-2.3-7.93-3.32a1.24,1.24,0,0,1,.89-2.31c2.69,1,5.41,2.18,8.05,3.37a1.23,1.23,0,0,1-.5,2.36ZM142.33,57.17a1.24,1.24,0,0,1-.46-2.38c2.66-1.09,5.4-2.12,8.14-3.07a1.23,1.23,0,1,1,.81,2.33c-2.69.94-5.39,2-8,3A1.27,1.27,0,0,1,142.33,57.17Zm110.06-4a1.21,1.21,0,0,1-.38-.06c-2.72-.88-5.49-1.7-8.23-2.43a1.24,1.24,0,0,1,.63-2.39c2.79.74,5.6,1.58,8.36,2.47a1.24,1.24,0,0,1-.38,2.41Zm-93.72-1.65a1.23,1.23,0,0,1-.34-2.42c2.79-.8,5.62-1.53,8.44-2.17a1.23,1.23,0,1,1,.55,2.4c-2.77.64-5.57,1.36-8.31,2.14A1,1,0,0,1,158.67,51.51Zm77-2.79-.25,0c-2.79-.58-5.63-1.09-8.44-1.52a1.24,1.24,0,1,1,.37-2.45c2.86.44,5.74,1,8.58,1.55a1.24,1.24,0,0,1-.26,2.45Zm-60.16-1.06a1.24,1.24,0,0,1-.21-2.46c2.86-.49,5.76-.9,8.62-1.24a1.24,1.24,0,0,1,.29,2.46c-2.82.33-5.68.74-8.49,1.22Zm43.08-1.55h-.12c-2.82-.28-5.7-.48-8.56-.61a1.23,1.23,0,0,1-1.18-1.29A1.18,1.18,0,0,1,210,43c2.9.13,5.83.34,8.69.62a1.24,1.24,0,0,1-.12,2.47Zm-25.91-.46a1.23,1.23,0,0,1-.08-2.46c2.88-.18,5.81-.29,8.71-.32h0a1.24,1.24,0,0,1,1.24,1.23,1.22,1.22,0,0,1-1.22,1.24c-2.86,0-5.74.14-8.57.31Z"/><path class="cls-2" d="M206,116.07A58,58,0,0,0,206,0Z"/><path class="cls-5" d="M206,0a58,58,0,1,0,0,116.07Z"/><path class="cls-7" d="M261.54,73.81c-.76,0-1.76.38-1.77.64s-1.07.73-1.42.88a4.52,4.52,0,0,0-1.17,1.57c-.15.35-1,.25-1.33.39s-1,.67-1,1-.18.28-.4-.09l-.41.44-.5.56A4.53,4.53,0,0,1,252,81.3c-.32.09-.38,1.66-.38,2.29a2.94,2.94,0,0,0,.54,1.73l.07.5.11,1a1.81,1.81,0,0,0,.58,1.6,8.33,8.33,0,0,0,2.15-.39,3.48,3.48,0,0,0,.78-.32,57.79,57.79,0,0,0,6-13.86Z"/><path class="cls-7" d="M165.72,75.3c-.09.15.95,1.22,1.36,1.58a10.38,10.38,0,0,1,1.42,2.68,4.36,4.36,0,0,1,0,1.73c-.05.22.19.7.24.9a14,14,0,0,0-.21,2.59c.15.69-.8,2.83-.78,3.9s.5,2.45.7,2.35.25,1-.07,1.09-.7,1-.52,1,0,.88,0,1.22.33,2.55.39,3.09a16.62,16.62,0,0,0,1,2.35c.17.46.34,1.32.4,1.45l.15.27a5.25,5.25,0,0,1,.83.38,5.46,5.46,0,0,0,1.84,0c.41-.09,0-.46-.15-.66s-.35-1.18-.56-1.28a2.23,2.23,0,0,1-.11-1.63c.19-.27.92-.72,1-.94s.1-1.33-.1-1.48.06-1.47-.09-2.12,1.14-1.25,1.21-1.77,1.47-1.08,1.79-1.34a3.35,3.35,0,0,0,.45-2.08c-.16-.31.51-.57.81-.57a4.15,4.15,0,0,0,.74-.21c.11,0,.47-.67.65-.82s.59-1.72.94-2a2.71,2.71,0,0,0,.64-1.49,4.52,4.52,0,0,1,.7-1.36,7.33,7.33,0,0,1,1.71-.94,10.51,10.51,0,0,0,.67-2.94,20.22,20.22,0,0,1,.51-2c0-.25.45-.46.52-.54a13,13,0,0,1,.59-1.25,6.58,6.58,0,0,0,.94-1.34,11.08,11.08,0,0,1,.24-1.17V70.63c-.23-.62-.93-1.41-1.11-1.24s-1-.56-1.4-.71a7.9,7.9,0,0,0-1.69-.28c-.26,0-1.16-.73-1.56-.87a16.15,16.15,0,0,1-1.62-.44c-.18-.12-.44-1.64-1.26-2.14a8.85,8.85,0,0,1-2.43-2.09c-.16-.42-1.75-1.32-2.24-1.59A1.92,1.92,0,0,0,171,61c-.1.09-.71-.82-1-1.09s-1.26-.47-1.3-.24-.68.11-.83-.09-.63.08-.87.16-1,1.28-1.37,1.57-.8-.27-1-.38a2.73,2.73,0,0,0-1.4.36c-.25.18-.82-1.28-.69-1.94s-.59-2-1.16-2-.74-1.43-.63-2-1-.84-1.3-.87-1,.69-1.11,1-2.69-.48-2.38-2a7.07,7.07,0,0,1,1.81-3.32,4.66,4.66,0,0,1,2.32-.07.62.62,0,0,0,.76-.1,5.05,5.05,0,0,1,1.81.18c.4.16,1,1.72,1.39,1.91s.57-1,.64-1.3a3.09,3.09,0,0,0-.3-1.23,4.19,4.19,0,0,1,1.3-2.42,3,3,0,0,0,1.24-1.55c-.06-.18.5-.33.65-.41s0-1.6.22-1.93a7.09,7.09,0,0,1,1.81-1.19,1.42,1.42,0,0,0,.51-1.29c-.13-.17,1-1.11,1.54-1.29s1.07.33.93.4c.11,0,.9-.46,1.24-.69s0-1-.25-1.18-.1-1,.2-1.11.58-.79.5-1,1.26.13,1.77-.25.14.91-.23,1.43a.58.58,0,0,0,.51.91c.24-.1.5.27.55.42s.56-.15.9,0,.54-.46.57-.74-.82-.87-.95-1.2a21.59,21.59,0,0,1-.2-2.71c0-.41-.56-1.06-.73-.94s-.53-1-.81-1.3a1.54,1.54,0,0,1-.34-1c0-.19-.95-1.2-1.18-1.66s-.55-.37-.57-.16-.7.24-1,.21-.5-1.08-.5-1.49-1.25-.46-1.45-.79-1-.17-1.15-.4a1.3,1.3,0,0,0-1-.35c-.15.09-.08,3-.22,3.75s-.79,1.47-1,1.45-.09.55.08.5-.47.85-.56,1.45-.68,0-.77-.57-.69-1.26-.8-1.07-.52-.23-.69-.11-1.29-.65-1.73-.89-.7-1.61-1-1.73,0-.29,0-.5.87-1,1.13-1.32a15.26,15.26,0,0,1,1.61-1.84,1.68,1.68,0,0,0,.61-1.11,9.89,9.89,0,0,1,2.09-.82c.46-.16.85-1.44.92-1.8a1.58,1.58,0,0,0-.5-1.16c-.22-.09.64-.13.92,0s1.16-.26,1.5-.08,1,.59,1.55.92l-.11.94-.2,1.59c-1.34.56-1.72,1.51-1.26,1.49a11,11,0,0,1,3.21,1.36c.59.42.79-.63,1-1a2.6,2.6,0,0,0,0-1.57c-.14-.21.7-.14.94.09s.51-.23.69-.32.27-.95.37-1.13-.4-.35-.41-.57-1-.64-1.29-.79a.77.77,0,0,1-.23-.93c.15-.11-.1-1-.26-1.23s-1.15-.5-1.49-.5-.67-.78-.87-.89a5.16,5.16,0,0,0-1.79-.16c-.32.09-.9-.91-1.44-.6s-1.09-.36-1.33-.5-1.5,1.22-1.49,2.17a2.6,2.6,0,0,0,.69,1.89c.19,0-.05.88-.27,1.13s-.74-.26-.54-.47-.55-1.21-.81-1.62a3.05,3.05,0,0,0-1.28-.72c-.25.28-.51.56-.76.85a2,2,0,0,1,.1,1.13c-.18.58-.66.67-.69.42s-.26-.19-.55-.23a57.8,57.8,0,0,0-13.05,30.34,3.29,3.29,0,0,1,.68,1c.16.51,1.05.84,1.21,1s.23-1,.11-1.26.21-.44.2-.24a8.24,8.24,0,0,0,1.11,1.5c.28.34.57,2.56.83,3s2.82,1.46,3.65,1.63a4.52,4.52,0,0,1,2,1.36c.16.27,1.24.4,1.49.51s.79.85,1,1a1.25,1.25,0,0,1,.42.72c0,.11,1.44.66,1.79,1a.78.78,0,0,0,1,.12c.11-.16.39.77.54,1.09a2,2,0,0,1,.07,1.24,16.58,16.58,0,0,1-.56,1.86,7.41,7.41,0,0,0-.65,2.81A3.3,3.3,0,0,0,164.44,71c.29.12.16.57-.06.6s-.13,2,.42,2.34A2,2,0,0,1,165.72,75.3Z"/><path class="cls-7" d="M172.54,39.94h0S172.53,40,172.54,39.94Z"/><path class="cls-7" d="M168.58,15.47a5.53,5.53,0,0,0,1.93-.5,1.17,1.17,0,0,0-.07-.8h.34c.26,0,.7-1.44,1-1.78A14.53,14.53,0,0,1,174,11.33a15.38,15.38,0,0,1,1.52-1.12c.32-.1.78-.84.71-1s1.08-.84,1.52-1,.65-.7.49-.72S175.72,8.73,173.5,10a59.72,59.72,0,0,0-7.14,5.73C167.05,15.68,168.13,15.55,168.58,15.47Z"/><path class="cls-7" d="M210.55,87.71A19.92,19.92,0,0,0,213,85a6.41,6.41,0,0,0,.81-2.11,1.92,1.92,0,0,1,.95-.88c.23-.07,1-3.2,1.65-3.88s1.43-4,1.35-5.18a15.85,15.85,0,0,1,.58-4,5.12,5.12,0,0,1,1.24-1.72,37,37,0,0,0,2.37-3.4,7.52,7.52,0,0,0,.9-3.14c-.1-.44-1.2-.74-1.42-.53a3.8,3.8,0,0,1-1.58.39c-.34,0-1.1-1.79-1.57-2.16s-.91-2.42-1.18-2.81-1-1.37-1.28-1.59-.29-1.32-.34-1.61.46.19.55.63a21.47,21.47,0,0,0,1.7,2.77c.38.59,1.38,2.46,1.64,3.05s2.48.28,3.21-.06a4.62,4.62,0,0,0,1.66-1.12c0-.2,1.19-.73,1.51-1s.6-1.6.81-1.81-.17-1.5-.41-1.88a2.07,2.07,0,0,0-1.63-.54c-.23.16-.73-.85-.91-1.22s-1.06-.83-1.16-1.08.24-.66.38-.74A7.43,7.43,0,0,1,225.05,51a12.46,12.46,0,0,1,1.09,1.8,2.32,2.32,0,0,0,1.66.06c.29-.21.62-.15.73.13l.41-.07,1.41-.23a2.88,2.88,0,0,1,.85,1.5,1.37,1.37,0,0,0,.68.79c.27.07.47,1,.56,1.22s.89,1.61,1.05,2.19a13.16,13.16,0,0,0,1,2,4.88,4.88,0,0,1,.3,1.43,1,1,0,0,0,.84.69c.32,0,1-2.05,1.12-2.8a2.1,2.1,0,0,1,.81-1.38c.15,0,.27-.42.27-.58s.82-.15.89-.35.32-1.54.61-1.75a13.48,13.48,0,0,1,1.69-1c.36-.12,1.29.68,1.5,1.05a3.52,3.52,0,0,1,.32,1.48c-.08.16.49,1,1,1s.65.62.67.86.67.89.8,1.19a2.55,2.55,0,0,1,0,1.29,4.32,4.32,0,0,0,.07,1.54,14.91,14.91,0,0,0,2.19,2.3c.57.47.84-1,.54-1.39s-1.29-1.47-1.52-1.77a3.84,3.84,0,0,1-.18-1.9c.09-.34.87.2,1.19.45a2.51,2.51,0,0,1,.77,1c0,.18,2-1,2.12-2.2a12.52,12.52,0,0,1,.82-3c.06-.33-.21-.77-.38-.78s.31-.95.88-.94,1.95-1.52,2.27-2.12a4.78,4.78,0,0,1,1.06-1.19,10,10,0,0,0,.61-2.11,6.29,6.29,0,0,0-.38-1.83,5.87,5.87,0,0,0-.67-1.24,2.54,2.54,0,0,1-.17-1.21c.08-.15.6-.32.65-.46s.65-.77.6-1.05.36.36.64.59.56,1.71.9,1.87,1.68-1.56,1.51-2.68a3.49,3.49,0,0,1,.73-2.68,7.29,7.29,0,0,0,1.31-1.64,58.19,58.19,0,0,0-14.29-22.53h-.23l-.49-.11c-.83-.17-1.31-1.06-1.18-1.27a.56.56,0,0,0,0-.39c-.46-.42-.94-.83-1.42-1.24h-1a4.6,4.6,0,0,1-1.78-.57c-.19-.2-.84.17-.88.53s-1.18.53-1.28.8a.63.63,0,0,1-.82.14c-.11-.15-1.16.37-1.69.44a9.63,9.63,0,0,0-1.73.61,3,3,0,0,0-.89.87c-.08.23-.76.6-1,.69s-.17,1.07.1,1.2-.51-.11-.86-.3-.75.42-.85.63-.44-.13-.43-.42-.86-.52-1-.29-.73-.08-1-.21-1.35,1-1.75,1.42a4.9,4.9,0,0,1-2.7.57c-.37-.16-.72.85-.41.92s-.79-.05-1.39,0a9.23,9.23,0,0,0-2.77,1.07.45.45,0,0,1-.75-.31c0-.24-.67-.46-.87-.53s-.58,1.31-.93,1.58-.76-1.08-1.58-1.3-2.1-1-2.46-1.1a4.88,4.88,0,0,1-1.29-1.08,3.7,3.7,0,0,0-1.59-.4,5.15,5.15,0,0,0-1.7.86c-.3.24-.73.2-.87.29s-1.38,1.28-1.85,1.65a16.25,16.25,0,0,0-1.57,2.38,1.07,1.07,0,0,1-.82.46c-.15,0-.29.44-.29.6s-1.4.89-1.55,1.53a14.59,14.59,0,0,0,.14,2.61c0,.52.52,1.54.91,1.56s.19.88.08,1.12.25.51.24.71-1,.5-1.29.61a2.27,2.27,0,0,0-.85,1.05c-.06.22-1,.38-1.3.68a5.73,5.73,0,0,1,.26-.68A1.12,1.12,0,0,0,199,32.9c-.15-.12-.22-1.81-.45-2.17a7.73,7.73,0,0,0-1-1.1c-.14-.11.11-.56.19-.74s-.78-.3-1-.16-.36,1.8-.47,2.26a1.49,1.49,0,0,0,.58,1.19c.14,0,.1.86-.2.89s-.59,1.23-.43,1.5-.22.82-.4.94,1.17.05,1.79,0,1.11.26,1,.31-1.19.22-1.38.48-1,.78-1.11,1,.25.65.57.63.69,1.11.94,1.32.16.8.05,1-1.62-.12-2.2,0-1.3,1.36-1.35,1.82a11.19,11.19,0,0,0,.17,2.14c.07.36,1.28.59,1.52.77s1.4,0,1.64.11,1-1.16,1.17-1.75,1.37-1.68,1.62-2.09,1.58-.36,1.91-.57.14,1,.3,1.67,1.42.58,1.23,0,.13-.9.18-.68,1.27.73,1.5,1.08.17,1.1-.1,1.09-.29.82,0,.91.66-.94,1-1.09.56-.79.41-.84.26-.62.44-.43A7.27,7.27,0,0,0,206,40.6c-.52-.52-.15-.29.81.52l.67.93c.13.17.3.68.42.87l.16.28a6.33,6.33,0,0,1,.24,1.46,1.07,1.07,0,0,0,.84.7c.31,0,.56.15.5.16s.21.63.52.65.46-.81.13-.82-.26-1.21-.3-1.71.23-.93.33-.93,0,1,0,1.29a3.25,3.25,0,0,0,.29,1.07l.32.24.74.57c1.05-.31,2.46-.08,2.4.14s.78.27.83-.08.09,0,.09.24-.69,1.18-.8,1.62-2.54.13-3.59.05-2.58.28-2.7.6-1.74-.73-2.49-1S204,46,203.88,45.81s.13-.52.06-.74-1.78-.27-2.28-.09-3,.45-3.66.72a3.24,3.24,0,0,1-1.79-.07c-.28-.05-1,.79-1.3.94s-.78,1.33-1,2.63l-.47.91-.3.57c-.84.65-1.78,2.79-2,3.22a20.79,20.79,0,0,0-.49,4.55,14.65,14.65,0,0,0,1.15,3.84,9.22,9.22,0,0,0,2.35,2.27,8.25,8.25,0,0,0,2.78.36,1.71,1.71,0,0,0,1.41-1.18l.82.08.37,0c0,.46,1.23.83,1.52,1a2.7,2.7,0,0,0,1.33,0c.24-.06.5,2.07.33,2.69a12.29,12.29,0,0,0,.59,3.42c.18.65.92,2.43,1,3.07a29.53,29.53,0,0,1-.52,3.51c-.08.74.93,2.82,1.19,3.54a11.63,11.63,0,0,1,.49,2.6c0,.36,1.1,2.51,1.35,3.4S209.81,88.14,210.55,87.71Z"/><path class="cls-7" d="M258.39,61.36c.08.15.78-.4,1.2-.46s.68-1.19.35-1.27-.75-1-1-1.06-.7.38-.68.71-.76.48-.91.76-.13.49,0,.47S258.33,61.2,258.39,61.36Z"/><path class="cls-7" d="M257.54,67.45c.21-.08,0-1.18-.46-1.28s-1.64,1.47-1.41,2.36.48.83.61.65.84.12,1.06.19.2-.15,0-.48A1.64,1.64,0,0,1,257.54,67.45Z"/><path class="cls-7" d="M255.17,66.37c0-.4.12-1.63.19-1.88s-.67-1-1-1.09-1.54,2.41-2.37,2.87a2.36,2.36,0,0,0-.93,2.35c.23.36,2,.54,2.28.81s.65,0,.83-.08.13-.16.06-.21.61-.76.71-1.22S255.12,66.76,255.17,66.37Z"/><path class="cls-7" d="M250.4,70.6a1.31,1.31,0,0,0-1.49.39c-.07.25,2.53.67,3.39.9s1.4.31,1.2.16S251.06,70.84,250.4,70.6Z"/><path class="cls-7" d="M255.67,53.71c.2-.29-.29-1.65-.54-1.34s-.07,1.1,0,1.37S255.46,54,255.67,53.71Z"/><path class="cls-7" d="M257.23,56.62c.15-.34-.18-.73-.75-.85s-.47,1.57-.23,1.79S257.08,57,257.23,56.62Z"/><path class="cls-7" d="M260.15,67.09c.68.48,2.17.26,2.22-.65C261.71,66,260.1,66.07,260.15,67.09Z"/><path class="cls-7" d="M259.79,46.38a1,1,0,0,0-.34.9h-.11c-.23,0-.26.89,0,1s.8-.69,1.1-.89a1.61,1.61,0,0,1,1-.26,2.55,2.55,0,0,0,1.16-.35,1,1,0,0,0,.33-.39c-.13-.65-.3-1.29-.45-1.92-.27.2-.59.42-.74.55S260.16,46.13,259.79,46.38Z"/><path class="cls-7" d="M244.45,64.2h0C244.34,64.12,244.33,64.11,244.45,64.2Z"/><path class="cls-7" d="M248.63,68.09A7,7,0,0,0,246.85,66l-.29-.46-.3-.51c-.28-.56-1.11-1-1.18-1.16s-.34.49-.62.3l.9.63c.78.57,2.28,4.35,2.62,4.61S248.87,68.64,248.63,68.09Z"/><path class="cls-7" d="M236.65,62c-.21.43,1.11,1.33,1.21,1.12a2.46,2.46,0,0,0-.4-1.49C237.23,61.4,236.86,61.56,236.65,62Z"/><path class="cls-7" d="M219.11,82.18c.06.45,1,.8,1.23.73a5,5,0,0,0,1.11-1.82,9.54,9.54,0,0,0,.19-1.44,1.35,1.35,0,0,1,.22-.7,2.37,2.37,0,0,0,.37-1,25.79,25.79,0,0,0-.57-3.32c0-.42-.49.22-.61.64s-1.31,1.28-1.57,1.64a3.55,3.55,0,0,0-.45,1.79,2.76,2.76,0,0,1-.22,1.27A13.13,13.13,0,0,0,219.11,82.18Z"/><path class="cls-7" d="M176.33,98.67h.79C177.27,97.81,176.29,98,176.33,98.67Z"/><path class="cls-7" d="M197.6,8.88a2.73,2.73,0,0,1-1.35-.29,3.35,3.35,0,0,0-1.82-.14c-.38.15-.12-.92.4-1s.08-.86-.48-.86-1.92-.2-2.24-.13-1-.23-1.18-.26a23.11,23.11,0,0,1-2.65.45,20.09,20.09,0,0,0-3.1.16c-.42.11-.71.92-.66,1.21s-1.84.28-2.44.29a20,20,0,0,0-4.64,1.15c-.84.46-1.49,1.63-1.21,1.66s-.47.68-.91.84-1.53.22-1.78.47.27.43.37.6.4-.15.68,0,1.22.24,1.46.34-.79.29-1.28.32-.37,1,0,1.13,1.43.28,1.53.1,1.22.19,1.72.25.89,1.31,1,1.59a4,4,0,0,1,.15,1.5c0,.28.89.78,1.05.6s.12.44-.25.41-.13,1,.33,1.18.14.81-.12,1-.12.82-.39,1,1,2.33,1,3.43.67,2,.93,2,1.15.22,1.27.46.55-.17.72-.35a8.59,8.59,0,0,0,.81-1.16,26.4,26.4,0,0,0,1-2.88c.08-.23,1.11-.09,1.34-.2a11.13,11.13,0,0,0,1.1-.81c.19-.16,1.65-.78,2.05-1.07s1.06-1.52,1.37-1.79-.16-.18-.55-.44a.41.41,0,0,1-.1-.68,4.43,4.43,0,0,1,1.7.35c.4.16,1.18-.4.88-.62s-.14-.21,0-.12.3-.71.14-.86,1.2-1.14,1-2.07.36-1.88.73-1.89.26-1.06-.18-1.15,0-.19.14-.34a2.25,2.25,0,0,0,.27-1.26c-.1-.18.66-.38.79-.59a3.9,3.9,0,0,1,1.31-.7C197.76,9.65,197.93,8.84,197.6,8.88Z"/><path class="cls-7" d="M205.16,9.64c-.42-.14-1.25.31-1.15.57s-.68-.33-1.23-.05-.71,1.26-.45,1.39.43.89.44,1,1.07.05,1.34-.17.24.77,0,1,.09.81.38.86.7.74,1,.73.82-1.18.94-1.62,1.14-.08,1.6.05.64-1.61.13-1.88-1.13-.13-1.34-.33a1.77,1.77,0,0,0-.79-.43C205.79,10.81,205.56,9.78,205.16,9.64Z"/><path class="cls-7" d="M209.21,10.48a2.79,2.79,0,0,0,1.94-.76c.2-.18-2.27-.69-3.21-.72s-1.7.1-1.68.29A9.2,9.2,0,0,0,209.21,10.48Z"/><path class="cls-7" d="M194.27,32.63c-.21-.1-.34.71-.28,1s.8.28,1.12.23a.64.64,0,0,0,.56-.58c0-.27-.47-1.48-.65-1.48S194.49,32.71,194.27,32.63Z"/><path class="cls-7" d="M196.7,23.2c-.17-.29-1.46-.26-1.77-.28a3.56,3.56,0,0,1-1.45-.54c-.18-.2-.33.79-.62.92s.15.32.27.22,0,.51-.14.72.85.36,1,.68a.82.82,0,0,0,.9.47c.39-.07,1.16-.47,1.43-.49S196.87,23.5,196.7,23.2Z"/><path class="cls-7" d="M223.67,15.85c.44-.44,2.26-1,2.46-1.5a.58.58,0,0,0-.31-.83.74.74,0,0,0-.45.3c-.05.08-2.13.57-2.77.87A8,8,0,0,0,221,15.75a26.86,26.86,0,0,0-.87,2.57c-.15.24.69,1.08,1.08,1.31a1.41,1.41,0,0,0,1,.07,5.24,5.24,0,0,0-.39-2C221.6,17.2,223.23,16.3,223.67,15.85Z"/><path class="cls-7" d="M221.44,10.47c.69.67,1.06-.31,1.82-.21C223.24,8.88,221.37,9.35,221.44,10.47Z"/><path class="cls-7" d="M234.76,10.72c0,.26,1.9.47,2.47.37s-.12-1-.94-.93S234.79,10.47,234.76,10.72Z"/><path class="cls-7" d="M165.34,24.94c-.21.19,0,1.13.35,1.16s1-1.42,1.47-1.13.79.4.71.25a14.68,14.68,0,0,0-1.58-.85C166.12,24.27,165.54,24.76,165.34,24.94Z"/><path class="cls-7" d="M170.24,56.79c0,.15.83.13,1-.13s.06-.46-.17-.46S170.24,56.62,170.24,56.79Z"/><path class="cls-7" d="M166.52,55.41c.4-.07.21.57.31.8s1,.42,1.24.58.69-.29,1.07-.25-.12-1.32-.77-1.28-1.15-.59-1.3-.66a9.38,9.38,0,0,1-1.11-.7,9.62,9.62,0,0,0-2.41-.31,1.8,1.8,0,0,0-1.25.75c-.09.19.88.32,1.15.17a2.83,2.83,0,0,1,1.85.47A1.4,1.4,0,0,0,166.52,55.41Z"/><path class="cls-7" d="M164.77,56.79c0,.15.84.06,1,.06s.2-.13,0-.31S164.77,56.62,164.77,56.79Z"/><path class="cls-7" d="M165.36,52.44c-.21-.08-.39.26-.39.42a.28.28,0,0,0,.27.3C165.39,53.16,165.58,52.53,165.36,52.44Z"/><path class="cls-7" d="M167.14,52.58a.87.87,0,0,0-.55-.3c-.11,0-.18.28-.17.62S167.21,52.74,167.14,52.58Z"/><path class="cls-7" d="M168.41,54.54c.34-.17.38-.57.18-.55s-.58-.59-.8-.67-.39.36-.39.55.12.34.27.3S168.06,54.7,168.41,54.54Z"/><path class="cls-7" d="M262.69,67.8c-.18.09-1,.19-1.14,0s-.28.35-.46.43-.08.53.19.39,1,.35,1.65.77c.13-.65.25-1.31.36-2C263.05,67.57,262.8,67.74,262.69,67.8Z"/><path class="cls-9" d="M165.72,75.3c-.09.15.95,1.22,1.36,1.58a10.38,10.38,0,0,1,1.42,2.68,4.36,4.36,0,0,1,0,1.73c-.05.22.19.7.24.9a14,14,0,0,0-.21,2.59c.15.69-.8,2.83-.78,3.9s.5,2.45.7,2.35.25,1-.07,1.09-.7,1-.52,1,0,.88,0,1.22.33,2.55.39,3.09a16.62,16.62,0,0,0,1,2.35c.17.46.34,1.32.4,1.45l.15.27a5.25,5.25,0,0,1,.83.38,5.46,5.46,0,0,0,1.84,0c.41-.09,0-.46-.15-.66s-.35-1.18-.56-1.28a2.23,2.23,0,0,1-.11-1.63c.19-.27.92-.72,1-.94s.1-1.33-.1-1.48.06-1.47-.09-2.12,1.14-1.25,1.21-1.77,1.47-1.08,1.79-1.34a3.35,3.35,0,0,0,.45-2.08c-.16-.31.51-.57.81-.57a4.15,4.15,0,0,0,.74-.21c.11,0,.47-.67.65-.82s.59-1.72.94-2a2.71,2.71,0,0,0,.64-1.49,4.52,4.52,0,0,1,.7-1.36,7.33,7.33,0,0,1,1.71-.94,10.51,10.51,0,0,0,.67-2.94,20.22,20.22,0,0,1,.51-2c0-.25.45-.46.52-.54a13,13,0,0,1,.59-1.25,6.58,6.58,0,0,0,.94-1.34,11.08,11.08,0,0,1,.24-1.17V70.63c-.23-.62-.93-1.41-1.11-1.24s-1-.56-1.4-.71a7.9,7.9,0,0,0-1.69-.28c-.26,0-1.16-.73-1.56-.87a16.15,16.15,0,0,1-1.62-.44c-.18-.12-.44-1.64-1.26-2.14a8.85,8.85,0,0,1-2.43-2.09c-.16-.42-1.75-1.32-2.24-1.59A1.92,1.92,0,0,0,171,61c-.1.09-.71-.82-1-1.09s-1.26-.47-1.3-.24-.68.11-.83-.09-.63.08-.87.16-1,1.28-1.37,1.57-.8-.27-1-.38a2.73,2.73,0,0,0-1.4.36c-.25.18-.82-1.28-.69-1.94s-.59-2-1.16-2-.74-1.43-.63-2-1-.84-1.3-.87-1,.69-1.11,1-2.69-.48-2.38-2a7.07,7.07,0,0,1,1.81-3.32,4.66,4.66,0,0,1,2.32-.07.62.62,0,0,0,.76-.1,5.05,5.05,0,0,1,1.81.18c.4.16,1,1.72,1.39,1.91s.57-1,.64-1.3a3.09,3.09,0,0,0-.3-1.23,4.19,4.19,0,0,1,1.3-2.42,3,3,0,0,0,1.24-1.55c-.06-.18.5-.33.65-.41s0-1.6.22-1.93a7.09,7.09,0,0,1,1.81-1.19,1.42,1.42,0,0,0,.51-1.29c-.13-.17,1-1.11,1.54-1.29s1.07.33.93.4c.11,0,.9-.46,1.24-.69s0-1-.25-1.18-.1-1,.2-1.11.58-.79.5-1,1.26.13,1.77-.25.14.91-.23,1.43a.58.58,0,0,0,.51.91c.24-.1.5.27.55.42s.56-.15.9,0,.54-.46.57-.74-.82-.87-.95-1.2a21.59,21.59,0,0,1-.2-2.71c0-.41-.56-1.06-.73-.94s-.53-1-.81-1.3a1.54,1.54,0,0,1-.34-1c0-.19-.95-1.2-1.18-1.66s-.55-.37-.57-.16-.7.24-1,.21-.5-1.08-.5-1.49-1.25-.46-1.45-.79-1-.17-1.15-.4a1.3,1.3,0,0,0-1-.35c-.15.09-.08,3-.22,3.75s-.79,1.47-1,1.45-.09.55.08.5-.47.85-.56,1.45-.68,0-.77-.57-.69-1.26-.8-1.07-.52-.23-.69-.11-1.29-.65-1.73-.89-.7-1.61-1-1.73,0-.29,0-.5.87-1,1.13-1.32a15.26,15.26,0,0,1,1.61-1.84,1.68,1.68,0,0,0,.61-1.11,9.89,9.89,0,0,1,2.09-.82c.46-.16.85-1.44.92-1.8a1.58,1.58,0,0,0-.5-1.16c-.22-.09.64-.13.92,0s1.16-.26,1.5-.08,1,.59,1.55.92l-.11.94-.2,1.59c-1.34.56-1.72,1.51-1.26,1.49a11,11,0,0,1,3.21,1.36c.59.42.79-.63,1-1a2.6,2.6,0,0,0,0-1.57c-.14-.21.7-.14.94.09s.51-.23.69-.32.27-.95.37-1.13-.4-.35-.41-.57-1-.64-1.29-.79a.77.77,0,0,1-.23-.93c.15-.11-.1-1-.26-1.23s-1.15-.5-1.49-.5-.67-.78-.87-.89a5.16,5.16,0,0,0-1.79-.16c-.32.09-.9-.91-1.44-.6s-1.09-.36-1.33-.5-1.5,1.22-1.49,2.17a2.6,2.6,0,0,0,.69,1.89c.19,0-.05.88-.27,1.13s-.74-.26-.54-.47-.55-1.21-.81-1.62a3.05,3.05,0,0,0-1.28-.72c-.25.28-.51.56-.76.85a2,2,0,0,1,.1,1.13c-.18.58-.66.67-.69.42s-.26-.19-.55-.23c-.26.31-.51.63-.77.95l-.75,1c-.26.34-.52.68-.77,1s-.45.63-.67.95-.66.94-1,1.42-.6.93-.89,1.4-.49.81-.73,1.22-.33.57-.49.85-.47.86-.7,1.3c-.13.24-.26.49-.38.75-.53,1-1,2.06-1.49,3.12l0,.09c-.23.52-.44,1.05-.66,1.58-.08.2-.16.4-.23.6-.21.55-.42,1.09-.62,1.65,0,.09-.05.18-.09.28a55.81,55.81,0,0,0-1.64,5.66l-.09.39a58.21,58.21,0,0,0-1,6.09.43.43,0,0,0,0,.05,3.29,3.29,0,0,1,.68,1c.16.51,1.05.84,1.21,1s.23-1,.11-1.26.21-.44.2-.24a8.24,8.24,0,0,0,1.11,1.5c.28.34.57,2.56.83,3s2.82,1.46,3.65,1.63a4.52,4.52,0,0,1,2,1.36c.16.27,1.24.4,1.49.51s.79.85,1,1a1.25,1.25,0,0,1,.42.72c0,.11,1.44.66,1.79,1a.78.78,0,0,0,1,.12c.11-.16.39.77.54,1.09a2,2,0,0,1,.07,1.24,16.58,16.58,0,0,1-.56,1.86,7.41,7.41,0,0,0-.65,2.81A3.3,3.3,0,0,0,164.44,71c.29.12.16.57-.06.6s-.13,2,.42,2.34A2,2,0,0,1,165.72,75.3Z"/><path class="cls-9" d="M172.55,39.94h0Z"/><path class="cls-9" d="M168.58,15.47a5.53,5.53,0,0,0,1.93-.5,1.17,1.17,0,0,0-.07-.8h.34c.26,0,.7-1.44,1-1.78A14.53,14.53,0,0,1,174,11.33a15.38,15.38,0,0,1,1.52-1.12c.32-.1.78-.84.71-1s1.08-.84,1.52-1,.65-.7.49-.72S175.72,8.73,173.5,10l-.06,0c-.64.43-1.26.88-1.88,1.33l-1.24,1-.65.52c-.49.39-1,.79-1.45,1.2l-.3.27c-.52.45-1,.92-1.56,1.4C167.05,15.68,168.13,15.55,168.58,15.47Z"/><path class="cls-9" d="M205.31,43.81c-.27,0-.29.82,0,.91s.47-.47.72-.81V40.67L206,40.6c-.34-.34-.29-.35.07-.09V20.66c-.3.27-.59.53-.77.67a16.25,16.25,0,0,0-1.57,2.38,1.07,1.07,0,0,1-.82.46c-.15,0-.29.44-.29.6s-1.4.89-1.55,1.53a14.59,14.59,0,0,0,.14,2.61c0,.52.52,1.54.91,1.56s.19.88.08,1.12.25.51.24.71-1,.5-1.29.61a2.27,2.27,0,0,0-.85,1.05c-.06.22-1,.38-1.3.68a5.73,5.73,0,0,1,.26-.68A1.12,1.12,0,0,0,199,32.9c-.15-.12-.22-1.81-.45-2.17a7.73,7.73,0,0,0-1-1.1c-.14-.11.11-.56.19-.74s-.78-.3-1-.16-.36,1.8-.47,2.26a1.49,1.49,0,0,0,.58,1.19c.14,0,.1.86-.2.89s-.59,1.23-.43,1.5-.22.82-.4.94,1.17.05,1.79,0,1.11.26,1,.31-1.19.22-1.38.48-1,.78-1.11,1,.25.65.57.63.69,1.11.94,1.32.16.8.05,1-1.62-.12-2.2,0-1.3,1.36-1.35,1.82a11.19,11.19,0,0,0,.17,2.14c.07.36,1.28.59,1.52.77s1.4,0,1.64.11,1-1.16,1.17-1.75,1.37-1.68,1.62-2.09,1.58-.36,1.91-.57.14,1,.3,1.67,1.42.58,1.23,0,.13-.9.18-.68,1.27.73,1.5,1.08S205.58,43.82,205.31,43.81Z"/><path class="cls-9" d="M206,47.73l-.66-.32c-.75-.31-1.34-1.45-1.49-1.6s.13-.52.06-.74-1.78-.27-2.28-.09-3,.45-3.66.72a3.24,3.24,0,0,1-1.79-.07c-.28-.05-1,.79-1.3.94s-.78,1.33-1,2.63l-.47.91-.3.57c-.84.65-1.78,2.79-2,3.22a20.79,20.79,0,0,0-.49,4.55,14.65,14.65,0,0,0,1.15,3.84,9.22,9.22,0,0,0,2.35,2.27,8.25,8.25,0,0,0,2.78.36,1.71,1.71,0,0,0,1.41-1.18l.82.08.37,0c0,.46,1.23.83,1.52,1a2.7,2.7,0,0,0,1.33,0c.24-.06.5,2.07.33,2.69a12.29,12.29,0,0,0,.59,3.42c.18.65.92,2.43,1,3.07a29.53,29.53,0,0,1-.52,3.51c-.08.74.93,2.82,1.19,3.54a11.63,11.63,0,0,1,.49,2.6,7.73,7.73,0,0,0,.6,1.54Z"/><path class="cls-9" d="M176.33,98.67h.79C177.27,97.81,176.29,98,176.33,98.67Z"/><path class="cls-9" d="M192.41,19.32c.4.16,1.18-.4.88-.62s-.14-.21,0-.12.3-.71.14-.86,1.2-1.14,1-2.07.36-1.88.73-1.89.26-1.06-.18-1.15,0-.19.14-.34a2.25,2.25,0,0,0,.27-1.26c-.1-.18.66-.38.79-.59a3.9,3.9,0,0,1,1.31-.7c.31-.07.48-.88.15-.84a2.73,2.73,0,0,1-1.35-.29,3.35,3.35,0,0,0-1.82-.14c-.38.15-.12-.92.4-1s.08-.86-.48-.86-1.92-.2-2.24-.13-1-.23-1.18-.26a23.11,23.11,0,0,1-2.65.45,20.09,20.09,0,0,0-3.1.16c-.42.11-.71.92-.66,1.21s-1.84.28-2.44.29a20,20,0,0,0-4.64,1.15c-.84.46-1.49,1.63-1.21,1.66s-.47.68-.91.84-1.53.22-1.78.47.27.43.37.6.4-.15.68,0,1.22.24,1.46.34-.79.29-1.28.32-.37,1,0,1.13,1.43.28,1.53.1,1.22.19,1.72.25.89,1.31,1,1.59a4,4,0,0,1,.15,1.5c0,.28.89.78,1.05.6s.12.44-.25.41-.13,1,.33,1.18.14.81-.12,1-.12.82-.39,1,1,2.33,1,3.43.67,2,.93,2,1.15.22,1.27.46.55-.17.72-.35a8.59,8.59,0,0,0,.81-1.16,26.4,26.4,0,0,0,1-2.88c.08-.23,1.11-.09,1.34-.2a11.13,11.13,0,0,0,1.1-.81c.19-.16,1.65-.78,2.05-1.07s1.06-1.52,1.37-1.79-.16-.18-.55-.44a.41.41,0,0,1-.1-.68A4.43,4.43,0,0,1,192.41,19.32Z"/><path class="cls-9" d="M205.16,9.64c-.42-.14-1.25.31-1.15.57s-.68-.33-1.23-.05-.71,1.26-.45,1.39.43.89.44,1,1.07.05,1.34-.17.24.77,0,1,.09.81.38.86.7.74,1,.73c.15,0,.36-.3.55-.65V10.85h0C205.79,10.81,205.56,9.78,205.16,9.64Z"/><path class="cls-9" d="M195.11,33.88a.64.64,0,0,0,.56-.58c0-.27-.47-1.48-.65-1.48s-.53.89-.75.81-.34.71-.28,1S194.79,33.93,195.11,33.88Z"/><path class="cls-9" d="M194,24.92a.82.82,0,0,0,.9.47c.39-.07,1.16-.47,1.43-.49s.58-1.4.41-1.7-1.46-.26-1.77-.28a3.56,3.56,0,0,1-1.45-.54c-.18-.2-.33.79-.62.92s.15.32.27.22,0,.51-.14.72S193.84,24.6,194,24.92Z"/><path class="cls-9" d="M165.34,24.94c-.21.19,0,1.13.35,1.16s1-1.42,1.47-1.13.79.4.71.25a14.68,14.68,0,0,0-1.58-.85C166.12,24.27,165.54,24.76,165.34,24.94Z"/><path class="cls-9" d="M170.24,56.79c0,.15.83.13,1-.13s.06-.46-.17-.46S170.24,56.62,170.24,56.79Z"/><path class="cls-9" d="M166.52,55.41c.4-.07.21.57.31.8s1,.42,1.24.58.69-.29,1.07-.25-.12-1.32-.77-1.28-1.15-.59-1.3-.66a9.38,9.38,0,0,1-1.11-.7,9.62,9.62,0,0,0-2.41-.31,1.8,1.8,0,0,0-1.25.75c-.09.19.88.32,1.15.17a2.83,2.83,0,0,1,1.85.47A1.4,1.4,0,0,0,166.52,55.41Z"/><path class="cls-9" d="M164.77,56.79c0,.15.84.06,1,.06s.2-.13,0-.31S164.77,56.62,164.77,56.79Z"/><path class="cls-9" d="M165.36,52.44c-.21-.08-.39.26-.39.42a.28.28,0,0,0,.27.3C165.39,53.16,165.58,52.53,165.36,52.44Z"/><path class="cls-9" d="M167.14,52.58a.87.87,0,0,0-.55-.3c-.11,0-.18.28-.17.62S167.21,52.74,167.14,52.58Z"/><path class="cls-9" d="M168.41,54.54c.34-.17.38-.57.18-.55s-.58-.59-.8-.67-.39.36-.39.55.12.34.27.3S168.06,54.7,168.41,54.54Z"/><path class="cls-2" d="M170.51,14.29c-.06-.06-.3.12-.19.23S170.61,14.41,170.51,14.29Z"/><path class="cls-2" d="M176.94,33.45c-.05-.07-.29.11-.2.23S177,33.56,176.94,33.45Z"/><path class="cls-3" d="M87.22,207.86,1.62,234a2.45,2.45,0,0,0-1.5,3.12l17.22,56.44a2.44,2.44,0,0,0,3,1.74l85.6-26.12a2.44,2.44,0,0,0,1.51-3.11L90.21,209.6A2.45,2.45,0,0,0,87.22,207.86Z"/><rect class="cls-4" x="11.4" y="224.45" width="84.72" height="54.11" transform="translate(-71.06 26.64) rotate(-16.97)"/><polygon class="cls-3" points="21.14 289.74 86.37 213.27 102.17 265.02 21.14 289.74"/><path class="cls-5" d="M116.05,264.56,9.35,297.11c0,.13,0,.26.06.39l.34,1.1c.56,1.84,3.19,2.67,5.87,1.84l97.1-29.62c2.68-.81,4.4-3,3.84-4.81l-.34-1.1A1.42,1.42,0,0,0,116.05,264.56Z"/><path class="cls-2" d="M10.53,299.79a5.52,5.52,0,0,0,5.09.66l97.1-29.63a5.5,5.5,0,0,0,3.85-3.39Z"/><path class="cls-2" d="M54.89,283.22l.14.45c.11.37.64.53,1.17.37l13.69-4.18c.53-.16.87-.59.76-.95l-.13-.46Z"/><path class="cls-3" d="M86.46,109.28l-20-9.2a4.82,4.82,0,0,0-6.4,2.35l-22,47.8a4.82,4.82,0,0,0,2.35,6.4l20,9.21a4.84,4.84,0,0,0,6.4-2.36l22-47.8A4.82,4.82,0,0,0,86.46,109.28Z"/><path class="cls-5" d="M71.15,106.32l7.53,3.47a.42.42,0,0,1,.21.56.42.42,0,0,1-.56.21l-7.53-3.47a.42.42,0,1,1,.35-.77Z"/><path class="cls-5" d="M51.9,158a2.79,2.79,0,1,1,3.7-1.37A2.79,2.79,0,0,1,51.9,158Z"/><rect class="cls-10" x="43.71" y="118.02" width="40.61" height="27.41" transform="translate(-82.41 134.73) rotate(-65.26)"/><polygon class="cls-11" points="43.06 144.43 67.96 155.9 84.96 119.02 43.06 144.43"/><path class="cls-3" d="M53.88,153.71a1.94,1.94,0,1,0,.95,2.57A1.94,1.94,0,0,0,53.88,153.71Z"/><path class="cls-12" d="M378.59,245.37,335.9,230.5a3.29,3.29,0,0,0-4.19,2l-19.59,56.21a3.29,3.29,0,0,0,2,4.19l42.69,14.87a3.29,3.29,0,0,0,4.19-2l19.58-56.2A3.29,3.29,0,0,0,378.59,245.37Z"/><path class="cls-5" d="M336.05,298.77a1.33,1.33,0,1,1,1.68-.82A1.32,1.32,0,0,1,336.05,298.77Z"/><rect class="cls-5" x="319.71" y="249.13" width="53.33" height="40.04" transform="matrix(0.33, -0.94, 0.94, 0.33, -21.78, 507.63)"/><rect class="cls-13" x="340.02" y="241.54" width="1.42" height="8.62" transform="translate(-3.58 486.66) rotate(-70.78)"/><rect class="cls-13" x="330.69" y="269.43" width="1.42" height="9.7" transform="translate(-36.56 497.12) rotate(-70.81)"/><rect class="cls-11" x="330.44" y="266.75" width="1.41" height="6.36" transform="matrix(0.33, -0.94, 0.94, 0.33, -32.78, 493.7)"/><rect class="cls-13" x="329.37" y="273.24" width="1.42" height="9.69" transform="translate(-41.21 498.14) rotate(-70.77)"/><rect class="cls-13" x="328.04" y="277.04" width="1.42" height="9.7" transform="translate(-45.65 499.52) rotate(-70.78)"/><polygon class="cls-13" points="338.31 277.44 347.47 280.63 347.94 279.3 338.78 276.1 338.31 277.44"/><rect class="cls-11" x="340.82" y="271.79" width="1.42" height="3.49" transform="translate(-29.4 505.66) rotate(-70.73)"/><rect class="cls-13" x="341.09" y="277.32" width="1.41" height="9.7" transform="translate(-37.07 512.17) rotate(-70.8)"/><rect class="cls-13" x="339.77" y="281.13" width="1.42" height="9.69" transform="translate(-41.69 513.26) rotate(-70.77)"/><rect class="cls-13" x="354.14" y="277.6" width="1.42" height="9.7" transform="translate(-28.6 524.65) rotate(-70.8)"/><rect class="cls-11" x="354.09" y="274.78" width="1.42" height="6.77" transform="translate(-24.66 521.62) rotate(-70.78)"/><rect class="cls-13" x="352.82" y="281.41" width="1.41" height="9.7" transform="translate(-33.01 526.07) rotate(-70.81)"/><rect class="cls-13" x="351.49" y="285.21" width="1.41" height="9.7" transform="translate(-37.59 527.21) rotate(-70.79)"/><polygon class="cls-13" points="363.93 254.68 369.09 256.48 369.56 255.14 364.4 253.35 363.93 254.68"/><rect class="cls-13" x="359.52" y="249.91" width="1.42" height="5.47" transform="translate(3.1 509.65) rotate(-70.78)"/><rect class="cls-13" x="352.99" y="247.63" width="1.42" height="5.47" transform="translate(0.92 502.03) rotate(-70.79)"/><rect class="cls-11" x="341.33" y="245.44" width="14.55" height="34.59" transform="matrix(0.33, -0.94, 0.94, 0.33, -14.18, 505.51)"/><polygon class="cls-10" points="340.19 252.1 367.33 261.56 362.54 275.29 351.52 271.46 340.19 252.1"/><polygon class="cls-5" points="161.18 377.86 161.18 340.05 161.18 321.1 147.59 307.51 109.71 307.51 109.71 321.55 109.71 340.05 109.71 377.86 161.18 377.86"/><polygon class="cls-9" points="147.59 321.1 161.18 321.1 147.59 307.51 147.59 321.1"/><polygon class="cls-2" points="161.18 321.1 147.59 321.1 161.18 334.68 161.18 321.1"/><path class="cls-4" d="M148.67,362.73v-8.87a8.33,8.33,0,1,1-8.87,8.87Z"/><path class="cls-10" d="M140.2,360.63a6.23,6.23,0,0,1,6.23-6.23v6.23Z"/><path class="cls-13" d="M144.61,337a3.65,3.65,0,0,0,.78,1.37l-2.7,3.77A8.29,8.29,0,0,1,140,337.5Z"/><path class="cls-10" d="M147.37,332.19a3.71,3.71,0,0,0-2.93,3.29l-4.63.51c0-.05,0-.1,0-.16a8.32,8.32,0,0,1,7.57-8.28Z"/><path class="cls-9" d="M150.87,333.34a3.68,3.68,0,0,0-2-1.15v-4.64a8.27,8.27,0,0,1,6,3.43Z"/><path class="cls-4" d="M146.62,339.23a3.61,3.61,0,0,0,1.5.32,3.71,3.71,0,0,0,3.72-3.72,3.63,3.63,0,0,0-.21-1.19l4-2.36A8.31,8.31,0,0,1,143.92,343Z"/><rect class="cls-9" x="115.82" y="327.55" width="20.07" height="2.06"/><rect class="cls-13" x="115.82" y="334.02" width="20.07" height="2.06"/><rect class="cls-13" x="115.82" y="340.49" width="20.07" height="2.06"/><rect class="cls-9" x="121.92" y="353.86" width="13.96" height="2.06"/><rect class="cls-13" x="115.82" y="360.33" width="20.07" height="2.05"/><rect class="cls-13" x="115.82" y="366.8" width="20.07" height="2.06"/><path class="cls-10" d="M398.87,106.82a29.12,29.12,0,0,0-22.2,48l-6.79,12.87,12.35-7.83a29.12,29.12,0,1,0,16.64-53Z"/><path class="cls-11" d="M398.87,106.82l-.29,0v58.25h.29a29.14,29.14,0,0,0,0-58.27Z"/><path class="cls-5" d="M396.26,156.08v-4.69a20.66,20.66,0,0,1-8.38-2.12l1.48-5.76a17.5,17.5,0,0,0,8.18,2.16c2.87,0,4.78-1.13,4.78-3s-1.58-3.06-5.27-4.29c-5.28-1.78-8.88-4.24-8.88-9,0-4.39,3.06-7.8,8.33-8.78v-4.69h4.83v4.34a18.06,18.06,0,0,1,7.21,1.63l-1.49,5.57a15.33,15.33,0,0,0-7.1-1.72c-3.19,0-4.23,1.43-4.23,2.8,0,1.58,1.72,2.67,6,4.2,5.87,2.07,8.18,4.78,8.18,9.26s-3.05,8.14-8.72,9.08v5.08Z"/><path class="cls-2" d="M401.68,132.66a33.12,33.12,0,0,1-3.1-1.26v7.49c2.6,1.05,3.74,2.14,3.74,3.73s-1.47,2.75-3.74,3v10.46h2.56V151c5.67-.94,8.72-4.69,8.72-9.08S407.55,134.73,401.68,132.66Z"/><path class="cls-2" d="M398.58,115.84v9.92a9.36,9.36,0,0,1,1.37-.1,15.33,15.33,0,0,1,7.1,1.72l1.49-5.57a18.06,18.06,0,0,0-7.21-1.63v-4.34Z"/></g></g></svg>