<svg xmlns="http://www.w3.org/2000/svg" xmlns:xlink="http://www.w3.org/1999/xlink" viewBox="0 0 63.56 65.41"><defs><style>.cls-1{fill:#f3c97b;}.cls-2{fill:#e4e4e4;}.cls-3{clip-path:url(#clip-path);}.cls-4{opacity:0.1;}.cls-5{fill:#fff;}</style><clipPath id="clip-path"><path class="cls-1" d="M63.49,29.71A31.78,31.78,0,1,1,33.84.07,31.79,31.79,0,0,1,63.49,29.71Z"/></clipPath></defs><g id="Camada_2" data-name="Camada 2"><g id="Layer_1" data-name="Layer 1"><ellipse class="cls-2" cx="30.76" cy="63.16" rx="24.95" ry="2.25"/><path class="cls-1" d="M63.49,29.71A31.78,31.78,0,1,1,33.84.07,31.79,31.79,0,0,1,63.49,29.71Z"/><g class="cls-3"><path class="cls-4" d="M33.55,63.31l-16-15,30-34,16,20s-2,14-11,21A41,41,0,0,1,33.55,63.31Z"/></g><path class="cls-5" d="M49.14,42.88H48V30a.55.55,0,0,0-.55-.57H44.64V26.6a.56.56,0,0,0-.56-.57H41.84V23.25a.56.56,0,0,0-.55-.57H15.05a.56.56,0,0,0-.56.57V36.6l-.74-.6a.57.57,0,0,0-.6-.07.53.53,0,0,0-.31.5v5a.58.58,0,0,0,.2.43l8.59,7A.48.48,0,0,0,22,49H49.14a.56.56,0,0,0,.56-.56v-5A.56.56,0,0,0,49.14,42.88Zm-5,0-5.68-4.74,8.44-7V42.88Zm-6.54-4,4.79,4H26.18l4.81-4,2.93,2.45a.58.58,0,0,0,.35.13.62.62,0,0,0,.37-.13Zm-.36-1.16h0l-2.94,2.45-2.92-2.45h0l-8.62-7.2H45.82Zm6.31-8.33H21.12a.56.56,0,0,0-.56.57V41.52L18.4,39.76V27.14H43.52ZM15.61,23.81H40.72V26H17.84a.56.56,0,0,0-.56.57V38.87l-1.67-1.36ZM21.5,47.3,14,41.15V37.61l7.54,6.1Zm.18-4.89V31.09l.35.28,8.09,6.77-5.68,4.74H22.25Zm26.9,5.46h-26V44h26Z"/><path class="cls-5" d="M29.94,21a.52.52,0,0,0,.39.17.54.54,0,0,0,.4-.17l4.93-4.92a.57.57,0,0,0-.4-1H33.05V12.85a.54.54,0,0,0-.56-.54H28.16a.55.55,0,0,0-.55.54v2.31H25.4a.55.55,0,0,0-.52.35.56.56,0,0,0,.13.61Zm-1.78-4.75a.58.58,0,0,0,.57-.57v-2.3h3.21v2.3a.57.57,0,0,0,.55.57h1.43l-3.59,3.58-3.58-3.58Z"/></g></g></svg>