<svg xmlns="http://www.w3.org/2000/svg" viewBox="0 0 37.75 37.65"><defs><style>.cls-1{fill:gray;}</style></defs><g id="Camada_2" data-name="Camada 2"><g id="Layer_1" data-name="Layer 1"><path class="cls-1" d="M35.45,0H2.28A2.29,2.29,0,0,0,0,2.29V20.81A2.27,2.27,0,0,0,2.28,23.1h3a.57.57,0,1,0,0-1.13h-3a1.16,1.16,0,0,1-1.14-1.16V2.29A1.15,1.15,0,0,1,2.28,1.14H35.45A1.16,1.16,0,0,1,36.6,2.29V20.81A1.17,1.17,0,0,1,35.45,22H29.26a.57.57,0,1,0,0,1.13h6.19a2.29,2.29,0,0,0,2.3-2.29V2.29A2.3,2.3,0,0,0,35.45,0Z"/><path class="cls-1" d="M2.66,20.44a.57.57,0,0,0,.79.17l12.34-7.93,2.75,2a.51.51,0,0,0,.66,0l2.75-2,12.34,7.93a.48.48,0,0,0,.31.08.56.56,0,0,0,.31-1L23,12l12-8.52a.57.57,0,0,0-.66-.94l-12.66,9h0l-2.74,1.93-2.74-1.93h0l-12.66-9a.58.58,0,0,0-.8.14.59.59,0,0,0,.14.8l12,8.52L2.84,19.66A.55.55,0,0,0,2.66,20.44Z"/><path class="cls-1" d="M6.66,26.13l6.89-6.88a.57.57,0,0,0,0-.82.58.58,0,0,0-.81,0l-7.29,7.3a.63.63,0,0,0-.17.4.55.55,0,0,0,.17.4l7.29,7.3a.57.57,0,0,0,.81,0,.56.56,0,0,0,0-.81Z"/><path class="cls-1" d="M19.51,22.32V18.84a.54.54,0,0,0-.35-.52.55.55,0,0,0-.62.11l-7.29,7.3a.58.58,0,0,0-.17.4.51.51,0,0,0,.17.4l7.29,7.3a.55.55,0,0,0,.62.12.55.55,0,0,0,.35-.53V29.94h.3c11.47,0,16.84,7.39,16.89,7.47a.57.57,0,0,0,.48.24.68.68,0,0,0,.23,0,.59.59,0,0,0,.32-.66C34.45,23.8,22.33,22.46,19.51,22.32Zm.33,6.49h-.91a.57.57,0,0,0-.56.57v2.67l-5.91-5.92,5.91-5.91v2.66a.55.55,0,0,0,.18.41.59.59,0,0,0,.4.15c.56,0,12.56-.13,16.9,11.34A22.84,22.84,0,0,0,19.84,28.81Z"/></g></g></svg>