<svg xmlns="http://www.w3.org/2000/svg" viewBox="0 0 32.86 31.46"><defs><style>.cls-1{fill:gray;}</style></defs><g id="Camada_2" data-name="Camada 2"><g id="Layer_1" data-name="Layer 1"><path class="cls-1" d="M7.29,5.5v3A1.5,1.5,0,0,0,8.79,10H20.23a1.5,1.5,0,0,0,1.5-1.49v-7A1.5,1.5,0,0,0,20.23,0H8.79a1.5,1.5,0,0,0-1.5,1.49v.08L5.52,3.16a.57.57,0,0,0-.17.37.5.5,0,0,0,.17.37Zm.83-3.34a.49.49,0,0,0,.16-.37v-.3A.51.51,0,0,1,8.79,1H20.23a.51.51,0,0,1,.5.5v7a.5.5,0,0,1-.5.49H8.79a.5.5,0,0,1-.51-.49V5.27a.52.52,0,0,0-.16-.36L6.59,3.53Z"/><path class="cls-1" d="M24.11,12.28H12.66a1.49,1.49,0,0,0-1.5,1.49v7a1.5,1.5,0,0,0,1.5,1.5H24.11a1.5,1.5,0,0,0,1.49-1.5v-3l1.77-1.6a.51.51,0,0,0,.17-.37.47.47,0,0,0-.17-.37l-1.77-1.6v-.07A1.49,1.49,0,0,0,24.11,12.28Zm2.18,3.53-1.52,1.37a.48.48,0,0,0-.17.36v3.23a.5.5,0,0,1-.49.51H12.66a.5.5,0,0,1-.5-.51v-7a.5.5,0,0,1,.5-.5H24.11a.49.49,0,0,1,.49.5v.3a.53.53,0,0,0,.17.37Z"/><path class="cls-1" d="M20.23,24.51H8.79A1.51,1.51,0,0,0,7.29,26l-1.77,1.6a.5.5,0,0,0-.17.37.53.53,0,0,0,.17.37L7.29,30v0a1.5,1.5,0,0,0,1.5,1.49H20.23A1.5,1.5,0,0,0,21.73,30V26A1.51,1.51,0,0,0,20.23,24.51Zm.5,5.46a.5.5,0,0,1-.5.48H8.79A.49.49,0,0,1,8.28,30v-.24a.49.49,0,0,0-.16-.37L6.59,28l1.53-1.38a.49.49,0,0,0,.16-.37V26a.5.5,0,0,1,.51-.5H20.23a.5.5,0,0,1,.5.5Z"/><path class="cls-1" d="M2.05,1.48A2.06,2.06,0,0,0,0,3.53,2,2,0,0,0,.36,4.68a2,2,0,0,0,1.69.9,2.05,2.05,0,0,0,0-4.1Zm.88,2.64a1.06,1.06,0,0,1-.88.48,1,1,0,0,1-.87-.48A1.05,1.05,0,1,1,3.1,3.53,1.12,1.12,0,0,1,2.93,4.12Z"/><path class="cls-1" d="M2.05,25.93A2.05,2.05,0,0,0,0,28a2,2,0,0,0,.36,1.15,2,2,0,0,0,1.69.9,2.06,2.06,0,0,0,0-4.11Zm.88,2.65a1.06,1.06,0,0,1-.88.45,1,1,0,0,1-.87-.45A1.07,1.07,0,0,1,1,28a1,1,0,0,1,2.1,0A1.15,1.15,0,0,1,2.93,28.58Z"/><path class="cls-1" d="M30.81,14.08a2,2,0,1,0,2.05,2A2.06,2.06,0,0,0,30.81,14.08Zm.87,2.63a1.06,1.06,0,0,1-1.93-.59,1.06,1.06,0,0,1,2.12,0A1,1,0,0,1,31.68,16.71Z"/><path class="cls-1" d="M10.67,4h7.47a.5.5,0,1,0,0-1H10.67a.5.5,0,1,0,0,1Z"/><path class="cls-1" d="M10.67,7h6.15a.5.5,0,1,0,0-1H10.67a.5.5,0,1,0,0,1Z"/><path class="cls-1" d="M22.09,15.28H14.62a.5.5,0,0,0,0,1h7.47a.5.5,0,0,0,0-1Z"/><path class="cls-1" d="M18.28,18.26H14.62a.51.51,0,0,0-.5.51.5.5,0,0,0,.5.5h3.66a.49.49,0,0,0,.49-.5A.5.5,0,0,0,18.28,18.26Z"/><path class="cls-1" d="M18.28,27.48H15.43a.51.51,0,0,0,0,1h2.85a.51.51,0,0,0,0-1Z"/><path class="cls-1" d="M12.8,27.48H10a.51.51,0,0,0,0,1H12.8a.51.51,0,0,0,0-1Z"/><path class="cls-1" d="M.49,24.5A.5.5,0,0,0,1,24V7.52A.5.5,0,0,0,.49,7a.49.49,0,0,0-.49.5V24A.49.49,0,0,0,.49,24.5Z"/><path class="cls-1" d="M32.36,0H24.22a.5.5,0,0,0-.5.5.49.49,0,0,0,.5.49h7.65V12.15a.49.49,0,0,0,.49.48.5.5,0,0,0,.5-.48V.5A.5.5,0,0,0,32.36,0Z"/><path class="cls-1" d="M32.36,19.61a.49.49,0,0,0-.49.5V30.45H24.22a.5.5,0,0,0-.5.51.5.5,0,0,0,.5.5h8.14a.5.5,0,0,0,.5-.5V20.11A.5.5,0,0,0,32.36,19.61Z"/></g></g></svg>