<svg xmlns="http://www.w3.org/2000/svg" viewBox="0 0 33.96 35.17"><defs><style>.cls-1{fill:gray;}</style></defs><g id="Camada_2" data-name="Camada 2"><g id="Layer_1" data-name="Layer 1"><path class="cls-1" d="M33.63,18.53c-3-4.74-3.21-6.05-3.22-6.11C29.06.88,19.74,0,16.92,0H16C14.62,0,7.52.28,4.08,5.63a.55.55,0,0,0,.15.75A.56.56,0,0,0,5,6.22c3.16-4.89,9.75-5.14,11-5.14h.28a5.83,5.83,0,0,1,.63,0c2.6,0,11.18.82,12.42,11.44,0,.14.17,1.56,3.4,6.61a.73.73,0,0,1-.33,1.14,25.56,25.56,0,0,1-2.81,1.33.53.53,0,0,0-.34.55,26.56,26.56,0,0,1,.06,5.65c-.14.78-1.91,1.3-4.37,1.3h-.43a.68.68,0,0,0-.17,0c-1.26,0-1.71.65-1.71,1.25v4.32a.54.54,0,1,0,1.07,0V30.31c0-.09.3-.17.64-.17H25c1.87,0,5.06-.27,5.42-2.15a25.08,25.08,0,0,0,0-5.57,25.78,25.78,0,0,0,2.58-1.25,1.91,1.91,0,0,0,1-1.24A1.85,1.85,0,0,0,33.63,18.53Z"/><path class="cls-1" d="M22.81,27.43a4.39,4.39,0,0,0-1-4.55A4.31,4.31,0,0,0,18,21.66l-4.28-4.27,4.75-4.76.38.37a.5.5,0,0,0,.37.16.45.45,0,0,0,.31-.11l2.68-1.9a.62.62,0,0,0,.22-.39.56.56,0,0,0-.16-.43L20,8.07a.51.51,0,0,0-.81.08L17.26,10.8a.54.54,0,0,0,0,.7l.38.37-4.75,4.76L8.65,12.34A4.35,4.35,0,0,0,2.89,7.51a.57.57,0,0,0-.35.38.52.52,0,0,0,.15.49L5.33,11a2.64,2.64,0,0,1-1.55,1.55L1.13,10a.57.57,0,0,0-.5-.16.54.54,0,0,0-.37.35,4.39,4.39,0,0,0,1,4.56,4.33,4.33,0,0,0,3.82,1.2l4.28,4.29L7.82,21.74,7.07,21a1.26,1.26,0,0,0-1.75,0l-.38.38A13.39,13.39,0,0,1,3.55,17a.52.52,0,0,0-.61-.44.53.53,0,0,0-.45.6,14.38,14.38,0,0,0,1.67,5l-3,3a2.82,2.82,0,0,0,0,4h0a2.85,2.85,0,0,0,4,0l2.32-2.31a14.39,14.39,0,0,1,.88,7.67.53.53,0,0,0,.45.6h.08a.54.54,0,0,0,.53-.45,15.37,15.37,0,0,0-1-8.33l-.15-.28L9.32,25a1.23,1.23,0,0,0,0-1.74l-.75-.74L10.12,21l4.29,4.28a4.34,4.34,0,0,0,1.21,3.82,4.4,4.4,0,0,0,3.09,1.26,4.35,4.35,0,0,0,1.46-.25.54.54,0,0,0,.34-.38.52.52,0,0,0-.14-.49l-2.65-2.66A2.57,2.57,0,0,1,19.28,25l2.64,2.64a.55.55,0,0,0,.89-.19ZM19.68,9.27l.68.68.68.7-1.79,1.28-.86-.87Zm-11.11,15L4.36,28.43a1.73,1.73,0,0,1-2.48,0,1.74,1.74,0,0,1,0-2.48l4.2-4.2a.18.18,0,0,1,.24,0l1.12,1.11v0h0L8.56,24A.17.17,0,0,1,8.57,24.24ZM22,26.18,19.8,24a.51.51,0,0,0-.5-.14,3.69,3.69,0,0,0-2.7,2.69.5.5,0,0,0,.14.5l2.18,2.19a3.31,3.31,0,0,1-2.55-.95,3.26,3.26,0,0,1-.86-3.12.51.51,0,0,0-.15-.49L5.63,15a.52.52,0,0,0-.37-.16.23.23,0,0,0-.12,0A3.27,3.27,0,0,1,2,13.94a3.3,3.3,0,0,1-1-2.55l2.18,2.18a.52.52,0,0,0,.51.15A3.7,3.7,0,0,0,6.46,11a.58.58,0,0,0-.14-.51L4.14,8.32a3.38,3.38,0,0,1,2.55,1,3.27,3.27,0,0,1,.86,3.1.53.53,0,0,0,.14.5l9.73,9.73a.55.55,0,0,0,.5.15,3.32,3.32,0,0,1,3.12.85A3.37,3.37,0,0,1,22,26.18Z"/></g></g></svg>