<svg xmlns="http://www.w3.org/2000/svg" viewBox="0 0 25.44 44.81"><defs><style>.cls-1{fill:#e08d6a;}</style></defs><g id="Camada_2" data-name="Camada 2"><g id="Layer_1" data-name="Layer 1"><path class="cls-1" d="M1,3.24c9.22-2.51,18.46,3.84,20.17,13,1.77,9.5-4.2,17.83-11.7,23.11.77-2.24,1.6-4.45,2.2-6.77s-3-3.21-3.52-.93a101.56,101.56,0,0,1-2.95,11,1.53,1.53,0,0,0,1.46,1.9,41.06,41.06,0,0,0,11-.32,1.38,1.38,0,0,0,1-1,1.13,1.13,0,0,0,0-.79l-.12-.25a1.36,1.36,0,0,0-1.21-.71c-2,0-3.89,0-5.83,0C21.16,36.48,27.46,26,24.84,14.64,22.4,4,10.63-3.68.38,1.83A.77.77,0,0,0,1,3.24Z"/></g></g></svg>