<svg xmlns="http://www.w3.org/2000/svg" viewBox="0 0 92.16 66.13"><defs><style>.cls-1{fill:#e08d6a;}</style></defs><g id="Camada_2" data-name="Camada 2"><g id="Layer_1" data-name="Layer 1"><path class="cls-1" d="M23.41,39.3c-3.05,3.32-5.89,6.83-8.81,10.27-2.77,3.25-5.22,6.92-8,10.17.46-.25.94-.51,1.36-.71a21.87,21.87,0,0,1,5.49-2.26c2.13-.4,3.12,3.06,1.3,4.33a24.42,24.42,0,0,1-5.91,2.52c-2.06.74-4.07,1.55-6.1,2.36-1.55.62-3-.82-2.71-2.57a45.69,45.69,0,0,1,2.49-8.13,27.67,27.67,0,0,1,3.58-7.37c.94-1.26,2.6-.21,2.38,1.25a46.2,46.2,0,0,1-2.1,7.46c1.3-2.07,2.7-4.08,4-6.07,2.12-3.17,4.3-6.24,6.7-9.19A136.56,136.56,0,0,1,32.83,24.77C43.67,15.26,56,7.72,69.17,3.46,76.33,1.14,84.12-.8,91.46.33c1.06.17.82,1.79-.14,2C83.05,4.11,74.86,5.07,66.78,8.16a98,98,0,0,0-22.71,12.5A144.19,144.19,0,0,0,23.41,39.3Z"/></g></g></svg>